<?xml version="1.0" encoding="UTF-8" standalone="no"?>
<svg version="1.1" xmlns="http://www.w3.org/2000/svg" xmlns:svg="http://www.w3.org/2000/svg"
   viewBox="140 650 545 250" width="545" height="250">
  <g>
    <path
       d="m 0,0 v 1.486 c 0,0.881 -1.031,1.631 -3.078,2.266 -2.058,0.623 -5.318,1.115 -9.806,1.443 -4.472,0.344 -10.322,0.504 -17.553,0.504 -7.233,0 -13.11,-0.16 -17.614,-0.504 -4.503,-0.328 -7.785,-0.82 -9.838,-1.443 -2.05,-0.635 -3.076,-1.385 -3.076,-2.266 V 0 c 0,-1.348 2.419,-2.389 7.261,-3.117 4.841,-0.731 12.595,-1.103 23.267,-1.103 7.231,0 13.081,0.172 17.553,0.511 4.488,0.34 7.748,0.813 9.806,1.443 C -1.031,-1.654 0,-0.893 0,0 m 8.197,0 c 0,-1.053 -1.438,-1.961 -4.307,-2.727 -2.888,-0.75 -7.219,-1.321 -12.994,-1.723 -5.783,-0.39 -12.89,-0.593 -21.333,-0.593 -8.453,0 -15.575,0.203 -21.387,0.593 -5.817,0.402 -10.155,0.973 -13.037,1.723 -2.877,0.766 -4.308,1.674 -4.308,2.727 v 1.486 c 0,1.059 1.431,1.962 4.308,2.719 2.882,0.758 7.22,1.334 13.037,1.726 5.812,0.401 12.934,0.592 21.387,0.592 8.443,0 15.55,-0.191 21.333,-0.592 C -3.329,5.539 1.002,4.963 3.89,4.205 6.759,3.448 8.197,2.545 8.197,1.486 Z"
       style="fill:#9c9a9b;fill-opacity:1;fill-rule:nonzero;stroke:none"
       transform="matrix(1.3333333,0,0,-1.3333333,551.57547,819.8728)" />
    <path
       d="m 0,0 v 7.342 c 0,5.003 -0.56,9.111 -1.676,12.331 -1.131,3.228 -2.925,5.658 -5.407,7.292 -2.49,1.635 -5.754,2.461 -9.803,2.461 -2.612,0 -5.281,-0.126 -7.993,-0.36 -2.716,-0.233 -5.214,-0.58 -7.497,-1.046 v -49.117 c 5.793,-0.942 10.955,-1.413 15.49,-1.413 6.049,0 10.369,1.891 12.975,5.666 C -1.299,-13.063 0,-7.447 0,0 m 4.845,0 c 0,-5.492 -0.775,-10.246 -2.311,-14.244 -1.536,-4.01 -3.915,-7.125 -7.139,-9.348 -3.231,-2.222 -7.333,-3.334 -12.322,-3.334 -5.725,0 -11.943,0.725 -18.622,2.156 -0.608,0.141 -1.037,0.37 -1.287,0.682 -0.249,0.305 -0.372,0.782 -0.372,1.432 v 76.873 c 0,0.541 0.175,1.029 0.538,1.469 0.356,0.436 0.799,0.644 1.34,0.644 h 1.131 c 0.533,0 0.976,-0.199 1.31,-0.592 0.342,-0.408 0.513,-0.916 0.513,-1.535 V 32.124 c 4.845,1.136 9.991,1.708 15.433,1.708 7.269,0 12.704,-2.223 16.336,-6.686 C 3.021,22.689 4.845,16.094 4.845,7.367 Z"
       style="fill:#ffffff;fill-opacity:1;fill-rule:nonzero;stroke:none"
       transform="matrix(1.3333333,0,0,-1.3333333,215.81187,790.13333)" />
    <path
       d="m 0,0 v 0.707 c 0,7.324 -1.344,12.814 -4.026,16.488 -2.694,3.676 -7.123,5.52 -13.292,5.52 -4.023,0 -7.346,-0.922 -9.964,-2.762 -2.616,-1.84 -4.534,-4.42 -5.772,-7.732 -1.232,-3.319 -1.845,-7.185 -1.845,-11.618 l 0,-0.603 z M 4.837,-2.307 C 4.837,-2.888 4.623,-3.372 4.206,-3.783 3.785,-4.21 3.297,-4.414 2.712,-4.414 H -34.899 V -6.73 c 0,-5.94 0.871,-10.543 2.613,-13.836 1.741,-3.293 4.076,-5.554 7.013,-6.791 2.94,-1.237 6.436,-1.864 10.505,-1.864 4.788,0 10.295,0.606 16.535,1.842 0.114,0.024 0.207,0.064 0.301,0.082 0.085,0.025 0.204,0.03 0.344,0.03 1.108,0 1.669,-0.512 1.669,-1.536 v -0.814 c 0,-0.623 -0.149,-1.08 -0.435,-1.375 -0.286,-0.289 -0.844,-0.532 -1.655,-0.704 -5.982,-1.29 -11.566,-1.941 -16.742,-1.941 -3.615,0 -6.913,0.451 -9.888,1.33 -2.969,0.879 -5.589,2.356 -7.877,4.414 -2.274,2.055 -4.046,4.851 -5.321,8.366 -1.269,3.526 -1.896,7.791 -1.896,12.806 v 7.362 c 0,5.129 0.845,9.697 2.574,13.705 1.722,4.008 4.274,7.136 7.652,9.388 3.382,2.258 7.449,3.387 12.189,3.387 4.954,0 9.1,-1.073 12.431,-3.248 3.326,-2.172 5.78,-5.246 7.359,-9.215 C 4.046,10.682 4.837,6.04 4.837,0.723 Z"
       style="fill:#ffffff;fill-opacity:1;fill-rule:nonzero;stroke:none"
       transform="matrix(1.3333333,0,0,-1.3333333,291.52213,781.18533)" />
    <path
       d="m 0,0 v 49.116 c -2.683,0.426 -5.267,0.768 -7.77,1.024 -2.499,0.252 -5.069,0.382 -7.71,0.382 -6.005,0 -10.336,-1.907 -12.96,-5.699 -2.622,-3.789 -3.936,-9.418 -3.936,-16.864 v -6.862 c 0,-7.377 1.314,-12.967 3.936,-16.783 2.624,-3.819 6.955,-5.727 12.96,-5.727 4.522,0 9.684,0.471 15.48,1.413 m 4.837,-1.522 c 0,-0.739 -0.129,-1.239 -0.376,-1.518 -0.25,-0.273 -0.679,-0.492 -1.285,-0.633 -6.688,-1.431 -12.908,-2.156 -18.65,-2.156 -7.373,0 -12.842,2.404 -16.4,7.206 -3.562,4.804 -5.338,11.376 -5.338,19.71 v 6.885 c 0,5.48 0.766,10.232 2.303,14.258 1.538,4.029 3.905,7.15 7.128,9.374 3.214,2.221 7.311,3.325 12.298,3.325 5.737,0 11.958,-0.707 18.648,-2.1 0.677,-0.15 1.131,-0.358 1.349,-0.63 0.216,-0.269 0.323,-0.768 0.323,-1.483 z"
       style="fill:#ffffff;fill-opacity:1;fill-rule:nonzero;stroke:none"
       transform="matrix(1.3333333,0,0,-1.3333333,363.81773,818.26213)" />
    <path
       d="M 0,0 C 0,-0.67 -0.164,-1.149 -0.481,-1.441 -0.816,-1.743 -1.363,-1.933 -2.124,-2.05 -7.715,-2.711 -12.2,-3.044 -15.557,-3.044 c -3.863,0 -7.206,0.699 -9.997,2.088 -2.8,1.393 -5.091,3.32 -6.849,5.795 -1.759,2.469 -3.05,5.32 -3.855,8.533 -0.804,3.207 -1.204,6.669 -1.204,10.399 v 7.462 c 0,5.204 0.738,9.768 2.231,13.705 1.48,3.937 3.859,7.046 7.127,9.34 3.272,2.299 7.444,3.436 12.547,3.436 1.624,0 3.529,-0.074 5.692,-0.216 2.161,-0.151 4.744,-0.405 7.741,-0.772 C -0.711,56.507 0,55.83 0,54.688 v -0.816 c 0,-1.025 -0.631,-1.548 -1.896,-1.548 h -0.436 c -5.205,0.652 -9.615,0.984 -13.225,0.984 -6.037,0 -10.384,-1.932 -13.059,-5.754 -2.679,-3.828 -4.009,-9.268 -4.009,-16.33 V 23.78 c 0,-7.056 1.342,-12.552 4.028,-16.497 2.692,-3.938 7.044,-5.911 13.04,-5.911 3.61,0 8.02,0.327 13.225,0.978 h 0.436 C -0.631,2.35 0,1.814 0,0.762 Z"
       style="fill:#ffffff;fill-opacity:1;fill-rule:nonzero;stroke:none"
       transform="matrix(1.3333333,0,0,-1.3333333,438.73827,821.97573)" />
    <path
       d="m 0,0 v 13.247 c 0,7.849 -1.031,14.583 -3.078,20.189 -2.058,5.613 -5.318,9.919 -9.806,12.933 -4.472,3.001 -10.322,4.507 -17.553,4.507 -7.233,0 -13.11,-1.506 -17.614,-4.507 -4.503,-3.014 -7.785,-7.32 -9.838,-12.933 -2.05,-5.606 -3.076,-12.34 -3.076,-20.189 V 0 c 0,-12.088 2.419,-21.378 7.261,-27.881 4.841,-6.504 12.595,-9.75 23.267,-9.75 7.231,0 13.081,1.493 17.553,4.496 4.488,3.015 7.748,7.291 9.806,12.838 C -1.031,-14.745 0,-7.983 0,0 m 8.197,0 c 0,-9.451 -1.438,-17.547 -4.307,-24.292 -2.888,-6.752 -7.219,-11.884 -12.994,-15.413 -5.783,-3.527 -12.89,-5.293 -21.333,-5.293 -8.453,0 -15.575,1.766 -21.387,5.293 -5.817,3.529 -10.155,8.661 -13.037,15.413 -2.877,6.745 -4.308,14.841 -4.308,24.292 v 13.247 c 0,9.44 1.431,17.534 4.308,24.29 2.882,6.747 7.22,11.879 13.037,15.41 5.812,3.526 12.934,5.283 21.387,5.283 8.443,0 15.55,-1.757 21.333,-5.283 C -3.329,49.416 1.002,44.284 3.89,37.537 6.759,30.781 8.197,22.687 8.197,13.24 Z"
       style="fill:#fbbc09;fill-opacity:1;fill-rule:nonzero;stroke:none"
       transform="matrix(1.3333333,0,0,-1.3333333,551.57547,766.59947)" />
    <path
       d="m 0,0 c 0,-0.576 -0.172,-1.078 -0.515,-1.493 -0.348,-0.404 -0.774,-0.619 -1.316,-0.619 h -1.13 c -0.535,0 -0.983,0.217 -1.338,0.66 -0.359,0.426 -0.542,0.918 -0.542,1.452 v 38.259 c 0,6.39 -1.191,10.623 -3.574,12.68 -2.398,2.056 -5.833,3.089 -10.322,3.089 h -4.775 c -4.462,0 -7.893,-1.049 -10.303,-3.119 -2.409,-2.074 -3.608,-6.297 -3.608,-12.65 V 0 c 0,-0.604 -0.184,-1.118 -0.546,-1.511 -0.349,-0.394 -0.798,-0.601 -1.34,-0.601 h -1.07 c -0.539,0 -0.987,0.217 -1.342,0.66 -0.367,0.426 -0.536,0.918 -0.536,1.452 v 38.233 c 0,5.676 0.952,10.025 2.876,13.076 1.907,3.049 4.228,5.042 6.959,5.96 2.723,0.918 5.691,1.377 8.91,1.377 h 4.761 c 3.222,0 6.188,-0.459 8.915,-1.377 2.722,-0.918 5.045,-2.879 6.967,-5.874 C -0.958,48.399 0,44.015 0,38.233 Z"
       style="fill:#ffffff;fill-opacity:1;fill-rule:nonzero;stroke:none"
       transform="matrix(1.3333333,0,0,-1.3333333,642.30987,823.21787)" />
    <path
       d="M 0,0 -210.236,54.243 2.934,11.354 Z"
       style="fill:#fbbc09;fill-opacity:1;fill-rule:nonzero;stroke:none"
       transform="matrix(1.3333333,0,0,-1.3333333,446.7956,728.1216)" />
    <path
       d="M 0,0 -84.359,84.598 6.297,6.299 Z"
       style="fill:#fbbc09;fill-opacity:1;fill-rule:nonzero;stroke:none"
       transform="matrix(1.3333333,0,0,-1.3333333,465.29813,688.31293)" />
    <path
       d="M 0,0 0.981,68.912 4.517,0.281 Z"
       style="fill:#fbbc09;fill-opacity:1;fill-rule:nonzero;stroke:none"
       transform="matrix(1.3333333,0,0,-1.3333333,505.9896,670.9432)" />
    <path
       d="m 0,0 c -3.57,0 -6.468,-2.901 -6.468,-6.467 0,-3.568 2.898,-6.472 6.468,-6.472 3.565,0 6.468,2.904 6.468,6.472 C 6.468,-2.901 3.565,0 0,0 m 0,-14.057 c -4.187,0 -7.587,3.408 -7.587,7.59 0,4.182 3.4,7.588 7.587,7.588 4.18,0 7.583,-3.406 7.583,-7.588 0,-4.182 -3.403,-7.59 -7.583,-7.59"
       style="fill:#ffffff;fill-opacity:1;fill-rule:nonzero;stroke:none"
       transform="matrix(1.3333333,0,0,-1.3333333,641.9036,706.40147)" />
    <path
       d="M 0,0 H 1.197 C 1.975,0 2.453,0.035 2.641,0.102 2.839,0.166 2.986,0.279 3.095,0.441 3.203,0.6 3.262,0.797 3.262,1.039 3.262,1.306 3.188,1.523 3.048,1.691 2.907,1.854 2.695,1.962 2.438,2.002 2.305,2.019 1.913,2.031 1.259,2.031 H 0 Z M -1.613,-4.606 V 3.383 H 1.776 C 2.636,3.383 3.257,3.31 3.643,3.166 4.027,3.023 4.344,2.766 4.572,2.401 4.803,2.033 4.918,1.611 4.918,1.141 4.918,0.546 4.743,0.047 4.39,-0.34 4.039,-0.732 3.514,-0.981 2.809,-1.083 3.161,-1.285 3.45,-1.51 3.677,-1.752 3.904,-1.996 4.21,-2.428 4.593,-3.05 L 5.572,-4.606 H 3.643 l -1.17,1.734 C 2.062,-2.248 1.776,-1.855 1.629,-1.695 1.474,-1.532 1.313,-1.424 1.143,-1.364 0.968,-1.301 0.696,-1.273 0.326,-1.273 H 0 v -3.333 z"
       style="fill:#ffffff;fill-opacity:1;fill-rule:nonzero;stroke:none"
       transform="matrix(1.3333333,0,0,-1.3333333,639.76827,714.2088)" />
    <text
       xml:space="preserve"
       style="font-size:33.3333px;writing-mode:lr-tb;direction:ltr;fill:#ffffff;fill-opacity:1"
       x="163.136"
       y="876.1123"><tspan
         x="163.136"
         y="876.1123"
         style="font-style:normal;font-variant:normal;font-weight:normal;font-stretch:normal;font-size:33.3333px;font-family:Dyno;-inkscape-font-specification:Dyno;fill:#ffffff;fill-opacity:1">D e c o r    &amp;    L i g h t    L . L . C</tspan></text>
  </g>
</svg>
