<?xml version="1.0" encoding="UTF-8"?>
<svg id="a" data-name="Layer 1" xmlns="http://www.w3.org/2000/svg" viewBox="0 0 364.36 188.5">
  <g>
    <path d="M297.23,183.27c0,1.05-1.44,1.96-4.31,2.73-2.89.75-7.22,1.32-12.99,1.72-5.78.39-12.89.59-21.33.59s-15.58-.2-21.39-.59c-5.82-.4-10.16-.97-13.04-1.72-2.88-.77-4.31-1.67-4.31-2.73v-1.49c0-1.06,1.43-1.96,4.31-2.72,2.88-.76,7.22-1.33,13.04-1.73,5.81-.4,12.93-.59,21.39-.59s15.55.19,21.33.59c5.78.39,10.11.97,12.99,1.73,2.87.76,4.31,1.66,4.31,2.72v1.49ZM289.03,183.27v-1.49c0-.88-1.03-1.63-3.08-2.27-2.06-.62-5.32-1.12-9.81-1.44-4.47-.34-10.32-.5-17.55-.5s-13.11.16-17.61.5c-4.5.33-7.79.82-9.84,1.44-2.05.64-3.08,1.39-3.08,2.27v1.49c0,1.35,2.42,2.39,7.26,3.12,4.84.73,12.59,1.1,23.27,1.1,7.23,0,13.08-.17,17.55-.51,4.49-.34,7.75-.81,9.81-1.44,2.05-.61,3.08-1.37,3.08-2.27Z" fill="#9d9fa2"/>
    <path d="M42.05,160.96c0,5.49-.77,10.25-2.31,14.24-1.54,4.01-3.92,7.13-7.14,9.35-3.23,2.22-7.33,3.33-12.32,3.33-5.73,0-11.94-.72-18.62-2.16-.61-.14-1.04-.37-1.29-.68-.25-.31-.37-.78-.37-1.43v-76.87c0-.54.18-1.03.54-1.47.36-.44.8-.65,1.34-.65h1.13c.53,0,.98.2,1.31.59.34.41.51.92.51,1.54v22.08c4.84-1.14,9.99-1.71,15.43-1.71,7.27,0,12.7,2.22,16.34,6.69,3.63,4.46,5.45,11.05,5.45,19.78v7.37ZM37.21,160.96v-7.34c0-5-.56-9.11-1.68-12.33-1.13-3.23-2.92-5.66-5.41-7.29-2.49-1.63-5.75-2.46-9.8-2.46-2.61,0-5.28.13-7.99.36-2.72.23-5.21.58-7.5,1.05v49.12c5.79.94,10.95,1.41,15.49,1.41,6.05,0,10.37-1.89,12.98-5.67,2.61-3.78,3.91-9.4,3.91-16.84Z" fill="#ffffff"/>
    <path d="M98.83,156.56c0,.58-.21,1.07-.63,1.48-.42.43-.91.63-1.49.63h-37.61v2.32c0,5.94.87,10.54,2.61,13.84,1.74,3.29,4.08,5.55,7.01,6.79,2.94,1.24,6.44,1.86,10.51,1.86,4.79,0,10.29-.61,16.53-1.84.11-.02.21-.06.3-.08.09-.02.2-.03.34-.03,1.11,0,1.67.51,1.67,1.54v.81c0,.62-.15,1.08-.43,1.38-.29.29-.84.53-1.65.7-5.98,1.29-11.57,1.94-16.74,1.94-3.61,0-6.91-.45-9.89-1.33-2.97-.88-5.59-2.36-7.88-4.41-2.27-2.06-4.05-4.85-5.32-8.36-1.27-3.53-1.9-7.79-1.9-12.81v-7.36c0-5.13.85-9.7,2.57-13.71,1.72-4.01,4.27-7.14,7.65-9.39,3.38-2.26,7.45-3.39,12.19-3.39s9.1,1.07,12.43,3.25c3.33,2.17,5.78,5.25,7.36,9.21,1.57,3.98,2.36,8.62,2.36,13.93v3.03ZM93.99,154.25v-.71c0-7.32-1.34-12.81-4.03-16.49-2.69-3.68-7.12-5.52-13.29-5.52-4.02,0-7.35.92-9.96,2.76-2.62,1.84-4.53,4.42-5.77,7.73-1.23,3.32-1.85,7.18-1.85,11.62v.6h34.9Z" fill="#ffffff"/>
    <path d="M153.05,183.58c0,.74-.13,1.24-.38,1.52-.25.27-.68.49-1.29.63-6.69,1.43-12.91,2.16-18.65,2.16-7.37,0-12.84-2.4-16.4-7.21-3.56-4.8-5.34-11.38-5.34-19.71v-6.88c0-5.48.77-10.23,2.3-14.26,1.54-4.03,3.9-7.15,7.13-9.37,3.21-2.22,7.31-3.32,12.3-3.32,5.74,0,11.96.71,18.65,2.1.68.15,1.13.36,1.35.63.22.27.32.77.32,1.48v52.24ZM148.21,182.06v-49.12c-2.68-.43-5.27-.77-7.77-1.02-2.5-.25-5.07-.38-7.71-.38-6.01,0-10.34,1.91-12.96,5.7-2.62,3.79-3.94,9.42-3.94,16.86v6.86c0,7.38,1.31,12.97,3.94,16.78,2.62,3.82,6.95,5.73,12.96,5.73,4.52,0,9.68-.47,15.48-1.41Z" fill="#ffffff"/>
    <path d="M204.4,184.84c0,.67-.16,1.15-.48,1.44-.33.3-.88.49-1.64.61-5.59.66-10.08.99-13.43.99-3.86,0-7.21-.7-10-2.09-2.8-1.39-5.09-3.32-6.85-5.79-1.76-2.47-3.05-5.32-3.85-8.53-.8-3.21-1.2-6.67-1.2-10.4v-7.46c0-5.2.74-9.77,2.23-13.71,1.48-3.94,3.86-7.05,7.13-9.34,3.27-2.3,7.44-3.44,12.55-3.44,1.62,0,3.53.07,5.69.22,2.16.15,4.74.4,7.74.77,1.41.22,2.12.9,2.12,2.04v.82c0,1.02-.63,1.55-1.9,1.55h-.44c-5.21-.65-9.62-.98-13.22-.98-6.04,0-10.38,1.93-13.06,5.75-2.68,3.83-4.01,9.27-4.01,16.33v7.44c0,7.06,1.34,12.55,4.03,16.5,2.69,3.94,7.04,5.91,13.04,5.91,3.61,0,8.02-.33,13.22-.98h.44c1.26,0,1.9.54,1.9,1.59v.76Z" fill="#ffffff"/>
    <path d="M297.23,143.31c0,9.45-1.44,17.55-4.31,24.29-2.89,6.75-7.22,11.88-12.99,15.41-5.78,3.53-12.89,5.29-21.33,5.29s-15.58-1.77-21.39-5.29c-5.82-3.53-10.16-8.66-13.04-15.41-2.88-6.75-4.31-14.84-4.31-24.29v-13.25c0-9.44,1.43-17.53,4.31-24.29,2.88-6.75,7.22-11.88,13.04-15.41,5.81-3.53,12.93-5.28,21.39-5.28s15.55,1.76,21.33,5.28c5.78,3.53,10.11,8.66,12.99,15.41,2.87,6.75,4.31,14.85,4.31,24.3v13.24ZM289.03,143.31v-13.25c0-7.85-1.03-14.58-3.08-20.19-2.06-5.61-5.32-9.92-9.81-12.93-4.47-3-10.32-4.51-17.55-4.51s-13.11,1.51-17.61,4.51c-4.5,3.01-7.79,7.32-9.84,12.93-2.05,5.61-3.08,12.34-3.08,20.19v13.25c0,12.09,2.42,21.38,7.26,27.88,4.84,6.5,12.59,9.75,23.27,9.75,7.23,0,13.08-1.49,17.55-4.5,4.49-3.01,7.75-7.29,9.81-12.84,2.05-5.55,3.08-12.31,3.08-20.3Z" fill="#ffc20e"/>
    <path d="M357.08,185.78c0,.58-.17,1.08-.51,1.49-.35.4-.77.62-1.32.62h-1.13c-.54,0-.98-.22-1.34-.66-.36-.43-.54-.92-.54-1.45v-38.26c0-6.39-1.19-10.62-3.57-12.68-2.4-2.06-5.83-3.09-10.32-3.09h-4.77c-4.46,0-7.89,1.05-10.3,3.12-2.41,2.07-3.61,6.3-3.61,12.65v38.26c0,.6-.18,1.12-.55,1.51-.35.39-.8.6-1.34.6h-1.07c-.54,0-.99-.22-1.34-.66-.37-.43-.54-.92-.54-1.45v-38.23c0-5.67.95-10.02,2.88-13.07,1.91-3.05,4.23-5.04,6.96-5.96,2.72-.92,5.69-1.38,8.91-1.38h4.76c3.22,0,6.19.46,8.92,1.38,2.72.92,5.04,2.88,6.97,5.87,1.91,2.99,2.87,7.38,2.87,13.16v38.23Z" fill="#ffffff"/>
    <polygon points="210.45 114.45 .21 60.21 213.38 103.1 210.45 114.45" fill="#ffc20e"/>
    <polygon points="224.32 84.6 139.96 0 230.62 78.3 224.32 84.6" fill="#ffc20e"/>
    <polygon points="254.84 71.57 255.82 2.66 259.36 71.29 254.84 71.57" fill="#ffc20e"/>
    <g>
      <path d="M356.78,112.22c-4.19,0-7.59-3.41-7.59-7.59s3.4-7.59,7.59-7.59,7.58,3.41,7.58,7.59-3.4,7.59-7.58,7.59ZM356.78,98.16c-3.57,0-6.47,2.9-6.47,6.47s2.9,6.47,6.47,6.47,6.47-2.9,6.47-6.47-2.9-6.47-6.47-6.47Z" fill="#ffffff"/>
      <path d="M353.56,108.63v-7.99h3.39c.86,0,1.48.07,1.87.22.38.14.7.4.93.76.23.37.35.79.35,1.26,0,.59-.17,1.09-.53,1.48-.35.39-.88.64-1.58.74.35.2.64.43.87.67.23.24.53.68.92,1.3l.98,1.56h-1.93l-1.17-1.73c-.41-.62-.7-1.02-.84-1.18-.16-.16-.32-.27-.49-.33-.17-.06-.45-.09-.82-.09h-.33v3.33h-1.61ZM355.18,104.02h1.2c.78,0,1.26-.03,1.44-.1.2-.06.35-.18.45-.34.11-.16.17-.36.17-.6,0-.27-.07-.48-.21-.65-.14-.16-.35-.27-.61-.31-.13-.02-.53-.03-1.18-.03h-1.26v2.03Z" fill="#ffffff"/>
    </g>
  </g>
  <g>
    <path d="M3.34,209.03h4.56c3.72,0,5.58,2.39,5.58,7.18s-1.86,7.18-5.58,7.18H3.34v-14.36ZM5.37,211.08v10.25h2.53c2.37,0,3.55-1.71,3.55-5.13s-1.18-5.13-3.55-5.13h-2.53Z" fill="#ffffff"/>
    <path d="M24.54,217.23c0-3.42,1.45-5.13,4.36-5.13s4.16,1.71,4.16,5.13c0,1.03-.17,1.54-.51,1.54h-5.98c0,1.71.68,2.56,2.03,2.56s2.4-.15,3.19-.45l.39,1.9c-.7.4-1.9.6-3.58.6-2.7,0-4.06-1.71-4.06-5.13v-1.03ZM31.02,216.82c0-1.78-.71-2.67-2.13-2.67-1.55,0-2.33.89-2.33,2.67h4.46Z" fill="#ffffff"/>
    <path d="M43.7,217.23c0-3.42,1.52-5.13,4.56-5.13,1.33,0,2.34.17,3.04.51l-.51,1.95c-.66-.27-1.51-.41-2.53-.41-1.69,0-2.53,1.03-2.53,3.08v1.03c0,2.05.84,3.08,2.53,3.08,1.03,0,1.87-.14,2.53-.41l.51,1.95c-.7.34-1.71.51-3.04.51-3.04,0-4.56-1.71-4.56-5.13v-1.03Z" fill="#ffffff"/>
    <path d="M61.86,217.23c0-3.42,1.52-5.13,4.56-5.13s4.56,1.71,4.56,5.13v1.03c0,3.42-1.52,5.13-4.56,5.13s-4.56-1.71-4.56-5.13v-1.03ZM63.88,218.26c0,2.05.84,3.08,2.53,3.08s2.53-1.03,2.53-3.08v-1.03c0-2.05-.84-3.08-2.53-3.08s-2.53,1.03-2.53,3.08v1.03Z" fill="#ffffff"/>
    <path d="M82.04,212.62c.7-.34,2.05-.51,4.06-.51.47,0,.89.04,1.28.12l-.46,2.03c-.22-.07-.5-.1-.82-.1-.34,0-.68.02-1.01.05s-.67.09-1.01.15v9.02h-2.03v-10.77Z" fill="#ffffff"/>
    <path d="M128.54,211.49c-.66-.27-1.68-.41-3.04-.41-2.03,0-3.04.68-3.04,2.05s1.01,2.08,3.04,2.15h2.03v-1.64l2.03-.51v2.15h1.52v1.85h-1.52v5.23c-1.34.68-2.7,1.03-4.05,1.03-3.38,0-5.07-1.37-5.07-4.1,0-1.36.68-2.39,2.03-3.08-1.35-.69-2.03-1.72-2.03-3.08,0-2.73,1.69-4.1,5.07-4.1,1.33,0,2.51.17,3.55.51l-.51,1.95ZM125.5,217.13c-2.03.08-3.04.79-3.04,2.15s1.01,2.05,3.04,2.05c.69,0,1.36-.14,2.03-.41v-3.79h-2.03Z" fill="#ffffff"/>
    <path d="M164.8,209.03h2.03v12.3h6.08v2.05h-8.11v-14.36Z" fill="#ffffff"/>
    <path d="M183.5,208h2.03v2.56h-2.03v-2.56ZM183.5,212.1h2.03v11.28h-2.03v-11.28Z" fill="#ffffff"/>
    <path d="M196.59,216.72c0-3.08,1.35-4.61,4.05-4.61,2.03,0,3.38.17,4.05.51v11.28c0,2.73-1.35,4.1-4.05,4.1-1.33,0-2.51-.17-3.55-.51l.51-2.05c.7.34,1.71.51,3.04.51s2.03-.68,2.03-2.05v-.82c-.68.21-1.36.31-2.03.31-2.7,0-4.05-1.54-4.05-4.61v-2.05ZM202.67,214.36c-.34-.07-.68-.12-1.01-.15s-.67-.05-1.01-.05c-1.35,0-2.03.85-2.03,2.56v2.05c0,1.71.68,2.56,2.03,2.56.34,0,.68-.02,1.01-.05s.67-.09,1.01-.15v-6.77Z" fill="#ffffff"/>
    <path d="M215.75,209.08l2.03-.51v3.9c.68-.21,1.35-.31,2.03-.31,2.7,0,4.05,1.54,4.05,4.61v6.61h-2.03v-6.61c0-1.71-.68-2.56-2.03-2.56-.34,0-.68.02-1.01.05s-.67.09-1.01.15v8.97h-2.03v-14.3Z" fill="#ffffff"/>
    <path d="M236.44,209.03l2.03-.51v3.59h3.04v2.05h-3.04v5.13c0,1.37.51,2.05,1.52,2.05.47,0,.94-.1,1.42-.31l.51,1.85c-.48.34-1.12.51-1.93.51-2.37,0-3.55-1.37-3.55-4.1v-5.13h-1.52v-2.05h1.52v-3.08Z" fill="#ffffff"/>
    <path d="M275.24,209.03h2.03v12.3h6.08v2.05h-8.11v-14.36Z" fill="#ffffff"/>
    <path d="M293.94,220.82h2.03v2.56h-2.03v-2.56Z" fill="#ffffff"/>
    <path d="M307.02,209.03h2.03v12.3h6.08v2.05h-8.11v-14.36Z" fill="#ffffff"/>
    <path d="M325.72,220.82h2.03v2.56h-2.03v-2.56Z" fill="#ffffff"/>
    <path d="M347.78,211.56c-.88-.32-2.01-.48-3.4-.48-2.37,0-3.55,1.71-3.55,5.13s1.18,5.13,3.55,5.13c1.39,0,2.53-.16,3.41-.48l.63,1.8c-1.18.49-2.53.73-4.04.73-3.72,0-5.58-2.39-5.58-7.18s1.86-7.18,5.58-7.18c1.53,0,2.89.25,4.06.74l-.66,1.79Z" fill="#ffffff"/>
    <path d="M358.99,220.82h2.03v2.56h-2.03v-2.56Z" fill="#ffffff"/>
  </g>
</svg>